:FULLY-SPECIFIED
:FORCE-ALL-JOINTS-BE-3DOF
:DEGREES
110
root 0.697705 17.4831 22.5191 -0.225822 -2.16332 1.18093
lfemur -3.20992 6.24989 -19.4738
ltibia 76.108 0 0
lfoot 12.3643 -0.426523 0
ltoes -10.3973 0 0
rfemur -17.3705 -0.877101 23.0657
rtibia 61.026 0 0
rfoot 1.91437 -6.47113 0
rtoes 15.2594 0 0
lowerback 17.6764 -1.37705 -0.775212
upperback 2.13738 -1.95516 -0.0777764
thorax -7.58046 -0.933728 0.823749
lowerneck -6.84051 1.539 -0.731067
upperneck -8.15987 2.04364 -1.10705
head -1.33902 1.04337 -0.189484
lclavicle -2.0494e-14 2.68042e-14 0
lhumerus -38.2988 -18.4524 91.2172
lradius 106.107 0 0
lwrist 28.0594 0 0
lhand -37.0624 8.25403 0
lfingers 7.12502 0 0
lthumb -10.1349 37.9891 0
rclavicle -2.0494e-14 2.68042e-14 0
rhumerus -42.1423 9.96508 -84.9651
rradius 87.064 0 0
rwrist -1.77065 0 0
rhand -44.5396 38.4527 0
rfingers 7.12502 0 0
rthumb -17.3406 9.20623 0
111
root 0.702421 17.4845 23.0601 -0.220011 -2.54892 1.04295
lfemur -2.79541 6.77244 -19.0237
ltibia 78.0387 0 0
lfoot 13.6798 -0.440509 0
ltoes -10.1244 0 0
rfemur -17.5609 -0.334218 23.479
rtibia 58.7901 0 0
rfoot 0.778234 -6.46629 0
rtoes 14.6373 0 0
lowerback 17.6673 -1.4004 -0.53103
upperback 2.09628 -1.92902 0.0602813
thorax -7.62347 -0.925599 0.827726
lowerneck -6.81425 1.6683 -0.655943
upperneck -8.17211 2.19547 -1.39616
head -1.34451 1.12066 -0.292403
lclavicle -2.15888e-14 2.59987e-14 0
lhumerus -38.997 -18.5586 91.5204
lradius 106.057 0 0
lwrist 28.0366 0 0
lhand -37.1221 8.32023 0
lfingers 7.12502 0 0
lthumb -10.1924 38.0525 0
rclavicle -2.15888e-14 2.59987e-14 0
rhumerus -41.8001 10.1555 -84.9784
rradius 87.5089 0 0
rwrist -1.91446 0 0
rhand -44.5359 38.4659 0
rfingers 7.12502 0 0
rthumb -17.337 9.21912 0
112
root 0.707137 17.4858 23.6011 -0.214067 -2.9266 0.907594
lfemur -2.39116 7.28418 -18.5828
ltibia 79.9298 0 0
lfoot 14.967 -0.454429 0
ltoes -9.85723 0 0
rfemur -17.7471 0.197171 23.8838
rtibia 56.6015 0 0
rfoot -0.33436 -6.46155 0
rtoes 14.0272 0 0
lowerback 17.6585 -1.42321 -0.291857
upperback 2.05609 -1.90334 0.195483
thorax -7.66556 -0.917601 0.831575
lowerneck -6.78825 1.79487 -0.582351
upperneck -8.18457 2.34411 -1.67918
head -1.35008 1.19633 -0.393171
lclavicle -2.26595e-14 2.52097e-14 0
lhumerus -39.6807 -18.662 91.8172
lradius 106.009 0 0
lwrist 28.0147 0 0
lhand -37.1806 8.38533 0
lfingers 7.12502 0 0
lthumb -10.2489 38.1148 0
rclavicle -2.26595e-14 2.52097e-14 0
rhumerus -41.4646 10.3419 -84.9915
rradius 87.9451 0 0
rwrist -2.05521 0 0
rhand -44.5323 38.4788 0
rfingers 7.12502 0 0
rthumb -17.3335 9.23171 0
113
root 0.711853 17.4872 24.1422 -0.208138 -3.29471 0.77555
lfemur -1.99811 7.78293 -18.153
ltibia 81.773 0 0
lfoot 16.2209 -0.468117 0
ltoes -9.597 0 0
rfemur -17.9283 0.714913 24.2785
rtibia 54.469 0 0
rfoot -1.41866 -6.45693 0
rtoes 13.4322 0 0
lowerback 17.6499 -1.44541 -0.0587369
upperback 2.01694 -1.87827 0.327248
thorax -7.70657 -0.909785 0.835302
lowerneck -6.76275 1.91821 -0.510616
upperneck -8.19698 2.48893 -1.95495
head -1.3556 1.27006 -0.491367
lclavicle -2.37023e-14 2.44406e-14 0
lhumerus -40.3469 -18.7626 92.1066
lradius 105.961 0 0
lwrist 27.9935 0 0
lhand -37.2377 8.44892 0
lfingers 7.12502 0 0
lthumb -10.304 38.1757 0
rclavicle -2.37023e-14 2.44406e-14 0
rhumerus -41.1375 10.5235 -85.0043
rradius 88.3703 0 0
rwrist -2.19235 0 0
rhand -44.5288 38.4913 0
rfingers 7.12502 0 0
rthumb -17.3302 9.24396 0
